# xmcd
#
# Track frame offsets:
#	150
#	15593
#	32716
#	53756
#	79862
#	100257
#	116235
#	133262
#	154207
#	167662
#	187708
#	212179
#
# Disc length: 3114 seconds
#
# Revision: 0
# Processed by: cddbd v1.5.2PL0 Copyright (c) Steve Scherf et al.
# Submitted via: FairStars CD Ripper 2.00
#
DISCID=9d0c280c
DTITLE=Orquestra de Violas - 10 anos
DYEAR=2018
DGENRE=Country
TTITLE0=Berrante da Saudade
TTITLE1=Meu Endereco
TTITLE2=O Ultimo Julgamento
TTITLE3=Empreitada Perigosa - Cavalo Enxuto
TTITLE4=Tristeza do Jeca
TTITLE5=Escolta de Vagalumes
TTITLE6=Jeitao de Caboclo
TTITLE7=Cabocla Tereza
TTITLE8=Encantos da Natureza
TTITLE9=Velha Porteira
TTITLE10=Caipira
TTITLE11=Comitiva Esperanca
EXTD=
EXTT0=
EXTT1=
EXTT2=
EXTT3=
EXTT4=
EXTT5=
EXTT6=
EXTT7=
EXTT8=
EXTT9=
EXTT10=
EXTT11=
PLAYORDER=
